<svg id="Layer_1" data-name="Layer 1" xmlns="http://www.w3.org/2000/svg" xmlns:xlink="http://www.w3.org/1999/xlink" viewBox="0 0 164.11 76.19"><defs><style>.cls-1,.cls-5{fill:none;}.cls-2{clip-path:url(#clip-path);}.cls-3{fill:#c6c617;}.cls-4{fill:#eff74d;}.cls-5{stroke:#141472;stroke-miterlimit:10;stroke-width:5px;}</style><clipPath id="clip-path" transform="translate(-4.83 -4.21)"><rect class="cls-1" x="-4" y="-1" width="177.02" height="88"/></clipPath></defs><title>arrow</title><g class="cls-2"><path class="cls-3" d="M7.43,57.17a1,1,0,0,0,1.05,1l92.94-4a.72.72,0,0,1,.75.72v22a1,1,0,0,0,1.49.86l62.51-36a1,1,0,0,0,.48-.69S41.53,47.8,7.43,41.06Z" transform="translate(-4.83 -4.21)"/><path class="cls-4" d="M166,40.52,103.54,6.83a1,1,0,0,0-1.47.88V29.8a.72.72,0,0,1-.75.71s-69.38.55-92.95-4a1,1,0,0,0-1,1s-.14,13.62,0,13.65c33.59,7.25,159.22.41,159.22.41A1,1,0,0,0,166,40.52Z" transform="translate(-4.83 -4.21)"/><path class="cls-5" d="M166.38,41.58a1.2,1.2,0,0,1-.21.17l-62.51,36a1,1,0,0,1-1.49-.86v-22a.72.72,0,0,0-.75-.71l-92.94,4a1,1,0,0,1-1.05-1v-16s-.1-13.67-.1-13.67a1,1,0,0,1,1.05-1c23.56,4.55,92.94,4,92.94,4a.72.72,0,0,0,.75-.71V7.71a1,1,0,0,1,1.47-.88L166,40.52A.93.93,0,0,1,166.38,41.58Z" transform="translate(-4.83 -4.21)"/></g></svg>